<?xml version="1.0" encoding="UTF-8" standalone="no"?>
<svg
   xmlns:dc="http://purl.org/dc/elements/1.1/"
   xmlns:cc="http://creativecommons.org/ns#"
   xmlns:rdf="http://www.w3.org/1999/02/22-rdf-syntax-ns#"
   xmlns:svg="http://www.w3.org/2000/svg"
   xmlns="http://www.w3.org/2000/svg"
   xmlns:sodipodi="http://sodipodi.sourceforge.net/DTD/sodipodi-0.dtd"
   xmlns:inkscape="http://www.inkscape.org/namespaces/inkscape"
   inkscape:version="1.0 (4035a4f, 2020-05-01)"
   sodipodi:docname="media.svg"
   version="1.1"
   viewBox="0 0 1121.80595 699.0818"
   height="699.0818"
   width="1121.80595"
   data-name="Layer 1"
   id="f2557a61-56ef-4ee7-9811-4cdcc73688e4">
  <metadata
     id="metadata986">
    <rdf:RDF>
      <cc:Work
         rdf:about="">
        <dc:format>image/svg+xml</dc:format>
        <dc:type
           rdf:resource="http://purl.org/dc/dcmitype/StillImage" />
      </cc:Work>
    </rdf:RDF>
  </metadata>
  <defs
     id="defs984" />
  <sodipodi:namedview
     inkscape:current-layer="f2557a61-56ef-4ee7-9811-4cdcc73688e4"
     inkscape:window-maximized="0"
     inkscape:window-y="43"
     inkscape:window-x="0"
     inkscape:cy="349.54089"
     inkscape:cx="560.90295"
     inkscape:zoom="0.59546843"
     showgrid="false"
     id="namedview982"
     inkscape:window-height="874"
     inkscape:window-width="1728"
     inkscape:pageshadow="2"
     inkscape:pageopacity="0"
     guidetolerance="10"
     gridtolerance="10"
     objecttolerance="10"
     borderopacity="1"
     bordercolor="#666666"
     pagecolor="#ffffff" />
  <title
     id="title833">creative team</title>
  <circle
     style="fill:#f6b6e6;fill-opacity:1"
     id="circle835"
     fill="#f2f2f2"
     r="253.99989"
     cy="413.34189"
     cx="839.37103" />
  <circle
     id="circle837"
     fill="#ff6584"
     r="97.000031"
     cy="142.34248"
     cx="124.37117" />
  <circle
     style="fill:#bd78f2;fill-opacity:1"
     id="circle839"
     fill="#f2f2f2"
     r="253.99989"
     cy="312.34189"
     cx="298.37103" />
  <ellipse
     id="ellipse841"
     fill="#3f3d56"
     ry="15"
     rx="279"
     cy="565.34247"
     cx="286.37112" />
  <ellipse
     id="ellipse843"
     opacity="0.1"
     ry="10.34483"
     rx="209"
     cy="565.85968"
     cx="230.37115" />
  <ellipse
     id="ellipse845"
     fill="#3f3d56"
     ry="16.5"
     rx="279"
     cy="669.84247"
     cx="829.37115" />
  <ellipse
     id="ellipse847"
     opacity="0.1"
     ry="11.37931"
     rx="209"
     cy="670.41144"
     cx="773.37115" />
  <rect
     id="rect855"
     fill="#3f3d56"
     height="190"
     width="320"
     y="478.34247"
     x="602.37115" />
  <circle
     id="circle857"
     fill="#e563ff"
     r="72"
     cy="575.34247"
     cx="705.37115" />
  <rect
     id="rect859"
     fill="#e563ff"
     height="24"
     width="24"
     y="508.34247"
     x="799.37115" />
  <rect
     id="rect861"
     opacity="0.5"
     fill="#e563ff"
     height="24"
     width="24"
     y="508.34247"
     x="829.37115" />
  <rect
     id="rect863"
     opacity="0.2"
     fill="#e563ff"
     height="24"
     width="24"
     y="508.34247"
     x="859.37115" />
  <rect
     style="fill:#e607d8;fill-opacity:1"
     id="rect865"
     fill="#2f2e41"
     height="24"
     width="24"
     y="538.34247"
     x="799.37115" />
  <rect
     style="fill:#cd08c1;fill-opacity:1"
     id="rect867"
     opacity="0.5"
     fill="#2f2e41"
     height="24"
     width="24"
     y="538.34247"
     x="829.37115" />
  <rect
     style="fill:#a221aa;fill-opacity:1"
     id="rect869"
     opacity="0.2"
     fill="#2f2e41"
     height="24"
     width="24"
     y="538.34247"
     x="859.37115" />
  <rect
     id="rect871"
     fill="#ff6584"
     height="24"
     width="24"
     y="568.34247"
     x="799.37115" />
  <rect
     id="rect873"
     opacity="0.5"
     fill="#ff6584"
     height="24"
     width="24"
     y="568.34247"
     x="829.37115" />
  <rect
     id="rect875"
     opacity="0.2"
     fill="#ff6584"
     height="24"
     width="24"
     y="568.34247"
     x="859.37115" />
  <path
     id="path877"
     opacity="0.5"
     fill="#3f3d56"
     d="m 705.37117,503.34245 v 144 c 39.76453,0 74,-32.23553 74,-72 0,-39.76447 -34.2355,-72 -74,-72 z" />
  <path
     id="path879"
     fill="#ffb9b9"
     d="m 990.87117,491.84245 c 0,0 42.00003,19 27.00003,41 -15,22 -60.00003,64 -61.00003,73 -1,9 -7,17 -7,17 0,0 -20,-21 -18,-23 2,-2 22,-21 23,-26 1,-5 31,-44 31,-44 l -27,-24 z" />
  <path
     id="path881"
     opacity="0.1"
     d="m 990.87117,491.84245 c 0,0 42.00003,19 27.00003,41 -15,22 -60.00003,64 -61.00003,73 -1,9 -7,17 -7,17 0,0 -20,-21 -18,-23 2,-2 22,-21 23,-26 1,-5 31,-44 31,-44 l -27,-24 z" />
  <path
     id="path883"
     fill="#ffb9b9"
     d="m 937.87117,533.84245 c 0,0 29,12 27,31 -2,19 35,73 35,73 0,0 4.00003,13 3.00003,17 -1,4 26,3 26,3 v -9 c 0,0 -21,-36 -23,-46 -2,-10 -14.00003,-49 -14.00003,-49 0,0 -4,-35 -24,-35 a 37.5,37.5 0 0 0 -30,15 z" />
  <path
     id="path885"
     fill="#2f2e41"
     d="m 939.37117,443.34245 c 0,0 60,49 58,53 -2,4 -31,19 -36,20 -5,1 -40.37795,-73 -40.37795,-73 z" />
  <path
     id="path887"
     opacity="0.1"
     d="m 939.37117,443.34245 c 0,0 60,49 58,53 -2,4 -31,19 -36,20 -5,1 -40.37795,-73 -40.37795,-73 z" />
  <path
     id="path889"
     fill="#2f2e41"
     d="m 874.37117,453.34245 c 0,0 -6,27 10,38 16,11 43,54 46,54 3,0 46,-23 44,-27 -2,-4 -24,-39 -24,-39 l -7,-37 c 0,0 -61,-2 -69,11 z" />
  <path
     id="path891"
     fill="#ffb9b9"
     d="m 939.37117,365.34245 9,58 16,41 c 0,0 24,25 10,27 -14,2 -22,-27 -22,-27 l -13,-24 z" />
  <path
     id="path893"
     opacity="0.1"
     d="m 939.37117,365.34245 9,58 16,41 c 0,0 24,25 10,27 -14,2 -22,-27 -22,-27 l -13,-24 z" />
  <path
     id="path895"
     fill="#ffb9b9"
     d="m 905.87117,300.84245 c 0,0 0,21 -7,23 -7,2 28,29 28,29 0,0 -4,-35 10,-44 z" />
  <path
     id="path897"
     opacity="0.1"
     d="m 905.87117,300.84245 c 0,0 0,21 -7,23 -7,2 28,29 28,29 0,0 -4,-35 10,-44 z" />
  <circle
     id="circle899"
     fill="#ffb9b9"
     r="23"
     cy="294.84247"
     cx="921.87115" />
  <path
     style="fill:#4a4a4a;fill-opacity:1"
     id="path901"
     fill="#e563ff"
     d="m 922.87117,342.84245 c 0,0 -21,-26 -24,-25 -3,1 -25,23 -27,30 -2,7 -6,57 -3,67 3,10 3,36 2,38 -1,2 -7,7 -1,7 6,0 27,-15 41,-12 14,3 33,-1 34,-3 1,-2 -1,-54 0,-58 1,-4 -2,-24 -3,-28 -1,-4 -1,-20 -11,-24 l -4.264,-0.42136 -0.23882,9.89157 z" />
  <path
     id="path903"
     fill="#ffb9b9"
     d="m 878.87117,394.84245 c 0,0 2,31 17,44 15,13 47,35 49,39 2,4 21,25 25,16 a 14.96181,14.96181 0 0 0 0.80194,-8.86675 22.05314,22.05314 0 0 0 -9.90344,-14.41279 l -8.8985,-5.72046 -44,-46 -2,-24 z" />
  <path
     id="path905"
     fill="#2f2e41"
     d="m 936.37117,596.34245 c 0,0 -11.5,-2.5 -15.5,4.5 -4,7 4,26 4,26 0,0 23,48 27,42 4,-6 -3,-28 -3,-28 0,0 10,-22 6,-23 -4,-1 -18.5,-9.5 -18.5,-21.5 z" />
  <path
     id="path907"
     fill="#2f2e41"
     d="m 1006.8712,653.84245 c 0,0 -6,-3 -7.00003,0 -1,3 -7,18 0,20 7.00003,2 76.00003,4 74.00003,0 -2,-4 -13,-9 -20,-11 -7,-2 -25,-17 -25,-17 0,0 -10,13 -22,8 z" />
  <path
     id="path909"
     fill="#2f2e41"
     d="m 945.04038,276.58819 a 6.15938,6.15938 0 0 0 -2.67142,-3.48695 14.13565,14.13565 0 0 0 -0.564,-4.60169 c -1.46952,-4.34444 -4.95079,-4.09542 -8.23546,-6.01618 -1.42509,-0.83335 -1.33707,-1.56988 -2.07894,-2.93864 a 10.90653,10.90653 0 0 0 -4.20254,-4.28786 c -2.10732,-1.34264 -4.3318,-2.72537 -6.82474,-2.8953 -5.239,-0.35709 -9.25573,4.57054 -14.263,6.152 -2.2071,0.697 -4.57869,0.72578 -6.79744,1.38476 -2.21875,0.65898 -4.43236,2.23247 -4.763,4.52325 -0.15265,1.05758 0.11666,2.14252 -0.0382,3.19981 -0.30781,2.10139 -2.15145,3.57314 -3.38563,5.30155 -2.72923,3.82216 -2.41707,9.22181 -0.23451,13.38047 a 18.80958,18.80958 0 0 0 1.57379,2.46278 15.14954,15.14954 0 0 0 1.66167,5.62586 c 2.18256,4.15865 5.93822,7.26624 9.86148,9.84805 a 23.277,23.277 0 0 1 -0.58191,-4.19944 2.89682,2.89682 0 0 1 0.17857,-1.39142 c 0.43691,-0.91332 1.59141,-1.15622 2.47166,-1.65643 1.8232,-1.03606 2.53817,-3.32891 2.59089,-5.42527 0.0527,-2.09636 -0.39154,-4.19618 -0.1719,-6.28163 a 3.43233,3.43233 0 0 1 1.175,-2.52484 4.05855,4.05855 0 0 1 2.21524,-0.52815 c 3.73556,-0.1524 7.63864,-0.221 10.93363,-1.98755 a 16.20347,16.20347 0 0 1 3.40312,-1.7215 c 2.80021,-0.73022 5.66219,1.23245 7.276,3.63455 1.61381,2.4021 2.41844,5.26063 3.90742,7.74207 1.48898,2.48144 4.0613,4.69432 6.94016,4.40032 a 1.15205,1.15205 0 0 0 0.85976,-0.38231 1.28879,1.28879 0 0 0 0.15838,-0.73249 l 0.16085,-11.00458 a 16.63363,16.63363 0 0 0 -0.55496,-5.59324 z" />
  <path
     style="fill:#4a4a4a;fill-opacity:1"
     id="path911"
     fill="#e563ff"
     d="m 887.87117,343.84245 c 0,0 22,10 21,31 -1,21 6,23 -11,25 -17,2 -21,0 -22,2 -1,2 -7,-46 -3,-51 4,-5 15,-7 15,-7 z" />
  <circle
     id="circle913"
     fill="#2f2e41"
     r="32"
     cy="142.34245"
     cx="445.37112" />
  <path
     id="path915"
     fill="#2f2e41"
     d="m 466.87117,492.84245 -18,49 c 0,0 -15,12 -6,16 9,4 27,-4 27,-4 l 14,-36 -2,-25 z" />
  <path
     id="path917"
     opacity="0.1"
     d="m 466.87117,492.84245 -18,49 c 0,0 -15,12 -6,16 9,4 27,-4 27,-4 l 14,-36 -2,-25 z" />
  <path
     id="path919"
     fill="#575a89"
     d="m 468.37117,202.34245 15,2 c 0,0 7,55 4,59 -3,4 -18,20 -24,16 -6,-4 5,-77 5,-77 z" />
  <path
     id="path921"
     fill="#a0616a"
     d="m 324.87117,302.84245 c 0,0 -21,9 -25,10 -4,1 -10,11 -3,13 7,2 34,-18 34,-18 z" />
  <path
     id="path923"
     fill="#2f2e41"
     d="m 473.87117,512.84245 11,41 c 0,0 1,15 6,16 5,1 20,-5 20,-7 0,-2 -6,-18 -6,-18 0,0 0,-12 -6,-17 -6,-5 -11.40551,-21.74959 -11.40551,-21.74959 z" />
  <path
     id="path925"
     fill="#2f2e41"
     d="m 487.87117,418.84245 c 2.02,4.71 1.77,38.88 -0.43994,61.62 -1.07007,11.05 -2.60009,19.4 -4.56006,20.38 l -14.33007,-3.58 -5.66993,-1.42 -0.15,-12.44 -0.85,-68.56 -17,-71 v -18 l 43,4 6.82007,10.71 0.17993,0.29 c 0,0 -10,71 -7,78 z" />
  <path
     id="path927"
     opacity="0.1"
     d="m 478.87117,440.84245 c 2.14,3.21 5.71,22.43 8.56006,39.62 -1.07007,11.05 -2.60009,19.4 -4.56006,20.38 l -14.33007,-3.58 c -0.22,-0.46 -0.43994,-0.94 -0.66993,-1.42 -1.83007,-3.84 -3.55,-8.08 -5.15,-12.44 l -0.85,-68.56 -17,-71 v -18 l 43,4 6.82007,10.71 -39.82007,-2.71 9,39 11,41 c 0,0 0,17 4,23 z" />
  <path
     id="path929"
     fill="#2f2e41"
     d="m 407.87117,285.84245 c 0,0 -14,31 6,74 a 874.08921,874.08921 0 0 1 33,82 c 0,0 7,33 17,54 10,21 8,22 8,22 l 16,-9 c 0,0 -9,-62 -13,-68 -4,-6 -4,-23 -4,-23 l -11,-41 -9,-39 44,3 c 0,0 0,-57 -20,-68 z" />
  <path
     id="path931"
     fill="#a0616a"
     d="m 424.37117,157.34245 c 0,0 0,16 -5,17 -5,1 -15,1 -18,6 -3,5 23,71 23,71 l 27,-17 9,-45 c 0,0 -13,-8 -13,-12 v -18 z" />
  <path
     id="path933"
     opacity="0.1"
     d="m 424.37117,157.34245 c 0,0 0,16 -5,17 -5,1 -15,1 -18,6 -3,5 23,71 23,71 l 27,-17 9,-45 c 0,0 -13,-8 -13,-12 v -18 z" />
  <circle
     id="circle935"
     fill="#a0616a"
     r="24"
     cy="150.84245"
     cx="439.87112" />
  <path
     id="path937"
     fill="#575a89"
     d="m 427.37117,231.34245 c 0,0 -9,-57 -11,-57 -2,0 -30,6 -32,7 -2,1 -9,10 -9,10 l 14,40 c 0,0 6,28 10,33 4,5 12,19 8,21 -4,2 -8,5 -4,5 4,0 37,-6 39,-3 2,3 35,-11 35,-12 0,-1 -4,-48 -4,-48 l 10,-23 -30,-21 z" />
  <path
     id="path939"
     fill="#575a89"
     d="m 385.37117,186.34245 -10,5 c 0,0 -28,64 -30,65 -2,1 -12,20 -13,24 -1,4 -3,17 -6,19 a 51.953,51.953 0 0 1 -5,3 c 0,0 6,10 9,10 3,0 13,-14 13,-14 0,0 22,14 28,3 6,-11 21,-81 21,-81 z" />
  <path
     id="path941"
     fill="#a0616a"
     d="m 463.87117,216.84245 c 0,0 -14,-34 -22,-30 -8,4 6,28 15,32 z" />
  <path
     id="path943"
     opacity="0.1"
     d="m 449.87117,217.84245 14.03051,-3.17174 2.96949,15.17174 c 0,0 13,23 10,33 -3,10 -21,26 -27,17 -6,-9 -11,-23 -7,-31 4,-8 10,-27 7,-31 z" />
  <path
     id="path945"
     fill="#575a89"
     d="m 452.87117,215.84245 14.03051,-3.17174 2.96949,15.17174 c 0,0 13,23 10,33 -3,10 -21,26 -27,17 -6,-9 -11,-23 -7,-31 4,-8 10,-27 7,-31 z" />
  <ellipse
     id="ellipse947"
     fill="#2f2e41"
     transform="rotate(-64.8987)"
     ry="24"
     rx="11.5"
     cy="461.84256"
     cx="66.346191" />
  <circle
     id="circle949"
     fill="#2f2e41"
     r="14"
     cy="115.34245"
     cx="464.37112" />
  <path
     id="path951"
     fill="#2f2e41"
     d="m 451.37117,110.34245 a 13.99971,13.99971 0 0 1 12.5,-13.917236 14,14 0 1 0 0,27.834476 13.99971,13.99971 0 0 1 -12.5,-13.91724 z" />
  <rect
     id="rect953"
     fill="#3f3d56"
     height="243"
     width="350"
     y="322.34247"
     x="51.371143" />
  <rect
     style="fill:#e563ff;fill-opacity:1"
     id="rect955"
     fill="#f2f2f2"
     height="46"
     width="46"
     y="346.34247"
     x="79.371147" />
  <rect
     style="fill:#e607d8;fill-opacity:1"
     id="rect957"
     fill="#e563ff"
     height="46"
     width="46"
     y="421.34247"
     x="79.371147" />
  <rect
     style="fill:#f50040;fill-opacity:1"
     id="rect959"
     fill="#f2f2f2"
     height="46"
     width="46"
     y="496.34247"
     x="79.371147" />
  <rect
     id="rect961"
     fill="#f2f2f2"
     height="4"
     width="219"
     y="360.84247"
     x="147.37115" />
  <rect
     id="rect963"
     fill="#f2f2f2"
     height="4"
     width="68"
     y="373.84247"
     x="147.37115" />
  <rect
     id="rect965"
     fill="#f2f2f2"
     height="4"
     width="219"
     y="435.84247"
     x="147.37115" />
  <rect
     id="rect967"
     fill="#f2f2f2"
     height="4"
     width="68"
     y="448.84247"
     x="147.37115" />
  <rect
     id="rect969"
     fill="#f2f2f2"
     height="4"
     width="219"
     y="510.84247"
     x="147.37115" />
  <rect
     id="rect971"
     fill="#f2f2f2"
     height="4"
     width="68"
     y="523.84247"
     x="147.37115" />
</svg>
