<?xml version="1.0" encoding="UTF-8" standalone="no"?>
<svg
   xmlns:dc="http://purl.org/dc/elements/1.1/"
   xmlns:cc="http://creativecommons.org/ns#"
   xmlns:rdf="http://www.w3.org/1999/02/22-rdf-syntax-ns#"
   xmlns:svg="http://www.w3.org/2000/svg"
   xmlns="http://www.w3.org/2000/svg"
   xmlns:sodipodi="http://sodipodi.sourceforge.net/DTD/sodipodi-0.dtd"
   xmlns:inkscape="http://www.inkscape.org/namespaces/inkscape"
   id="ec500484-8e35-4be5-8191-25e4427db5df"
   data-name="Layer 1"
   width="503.48001"
   height="720.79248"
   viewBox="0 0 503.48003 720.79247"
   version="1.1"
   sodipodi:docname="undraw_calling_kpbp.svg"
   inkscape:version="1.0 (4035a4f, 2020-05-01)">
  <metadata
     id="metadata963">
    <rdf:RDF>
      <cc:Work
         rdf:about="">
        <dc:format>image/svg+xml</dc:format>
        <dc:type
           rdf:resource="http://purl.org/dc/dcmitype/StillImage" />
        <dc:title>calling</dc:title>
      </cc:Work>
    </rdf:RDF>
  </metadata>
  <sodipodi:namedview
     inkscape:document-rotation="0"
     pagecolor="#ffffff"
     bordercolor="#666666"
     borderopacity="1"
     objecttolerance="10"
     gridtolerance="10"
     guidetolerance="10"
     inkscape:pageopacity="0"
     inkscape:pageshadow="2"
     inkscape:window-width="1920"
     inkscape:window-height="974"
     id="namedview961"
     showgrid="false"
     fit-margin-top="100"
     fit-margin-left="100"
     fit-margin-right="100"
     fit-margin-bottom="0"
     lock-margins="false"
     inkscape:zoom="1.1660994"
     inkscape:cx="258.80487"
     inkscape:cy="583.33729"
     inkscape:window-x="0"
     inkscape:window-y="23"
     inkscape:window-maximized="0"
     inkscape:current-layer="ec500484-8e35-4be5-8191-25e4427db5df" />
  <defs
     id="defs840">
    <linearGradient
       id="a4d1bb72-7695-4d06-9254-f62b9a81de63"
       x1="736.46997"
       y1="828.46002"
       x2="736.46997"
       y2="482.14001"
       gradientTransform="matrix(-1,0,0,1,1540,0)"
       gradientUnits="userSpaceOnUse">
      <stop
         offset="0"
         stop-color="gray"
         stop-opacity="0.25"
         id="stop833" />
      <stop
         offset="0.54"
         stop-color="gray"
         stop-opacity="0.12"
         id="stop835" />
      <stop
         offset="1"
         stop-color="gray"
         stop-opacity="0.1"
         id="stop837" />
    </linearGradient>
  </defs>
  <title
     id="title842">calling</title>
  <ellipse
     cx="252.78305"
     cy="710.79248"
     rx="142"
     ry="10"
     fill="#6c63ff"
     opacity="0.1"
     id="ellipse844" />
  <rect
     x="394.62003"
     y="236.64999"
     width="8.8599997"
     height="73.019997"
     rx="2.29"
     fill="#3a3768"
     id="rect862" />
  <rect
     x="100.18002"
     y="179.44"
     width="4.9699998"
     height="24.040001"
     rx="2.29"
     fill="#3a3768"
     id="rect864" />
  <rect
     x="100"
     y="223.45999"
     width="5.5999999"
     height="41.84"
     rx="2.29"
     fill="#3a3768"
     id="rect866" />
  <rect
     x="100.09003"
     y="279.94"
     width="5.3299999"
     height="42.200001"
     rx="2.29"
     fill="#3a3768"
     id="rect868" />
  <rect
     x="104.58307"
     y="100"
     width="296.39999"
     height="602.39001"
     rx="38.990002"
     fill="#3f3d56"
     id="rect870" />
  <rect
     x="222.61002"
     y="117.99"
     width="41.389999"
     height="8.3999996"
     rx="3.8699999"
     fill="#e6e8ec"
     id="rect872" />
  <circle
     cx="275.01999"
     cy="122.19001"
     r="4.77"
     fill="#e6e8ec"
     id="circle874" />
  <path
     d="m 357.52001,115.69 h -33.9 v 4.09 a 19.38,19.38 0 0 1 -19.38,19.38 h -108.18 a 19.38,19.38 0 0 1 -19.38,-19.38 v -4.09 h -31.84 a 23.53,23.53 0 0 0 -23.53,23.54 v 523.93 a 23.53,23.53 0 0 0 23.53,23.54 h 212.68 a 23.54,23.54 0 0 0 23.54,-23.54 V 139.23 a 23.54,23.54 0 0 0 -23.54,-23.54 z"
     fill="#6c63ff"
     id="path876"
     style="fill:#fff778;fill-opacity:1" />
  <rect
     x="132.20001"
     y="209.7"
     width="149"
     height="24"
     stroke="#6c63ff"
     stroke-miterlimit="10"
     opacity="0.1"
     id="rect878" />
  <circle
     cx="168.20001"
     cy="341.70001"
     r="32"
     stroke="#6c63ff"
     stroke-miterlimit="10"
     opacity="0.1"
     id="circle880" />
  <path
     d="m 159.20001,335.7 v 12 h 8 l 10,10.45 v -32.91 l -10,10.46 z"
     fill="#ffffff"
     id="path882" />
  <circle
     cx="253.20004"
     cy="341.70001"
     r="32"
     stroke="#6c63ff"
     stroke-miterlimit="10"
     opacity="0.1"
     id="circle884" />
  <path
     d="m 253.20001,355.06 a 3.82,3.82 0 1 0 3.8,3.82 3.82,3.82 0 0 0 -3.8,-3.82 z m -11.2,-34.36 a 3.82,3.82 0 1 0 3.79,3.82 3.82,3.82 0 0 0 -3.79,-3.82 z m 0,11.46 a 3.82,3.82 0 1 0 3.79,3.81 3.81,3.81 0 0 0 -3.79,-3.81 z m 0,11.45 a 3.82,3.82 0 1 0 3.79,3.82 3.82,3.82 0 0 0 -3.79,-3.82 z m 22.4,-15.27 a 3.82,3.82 0 1 0 -3.8,-3.82 3.81,3.81 0 0 0 3.8,3.82 z m -11.2,15.27 a 3.82,3.82 0 1 0 3.8,3.82 3.82,3.82 0 0 0 -3.8,-3.82 z m 11.2,0 a 3.82,3.82 0 1 0 3.8,3.82 3.82,3.82 0 0 0 -3.8,-3.82 z m 0,-11.45 a 3.82,3.82 0 1 0 3.8,3.81 3.81,3.81 0 0 0 -3.8,-3.81 z m -11.2,0 a 3.82,3.82 0 1 0 3.8,3.81 3.81,3.81 0 0 0 -3.8,-3.81 z m 0,-11.46 a 3.82,3.82 0 1 0 3.8,3.82 3.82,3.82 0 0 0 -3.8,-3.82 z"
     fill="#ffffff"
     id="path886" />
  <g
     opacity="0.4"
     id="g892"
     transform="translate(-312.32999,-13.77)">
    <circle
       cx="480.53"
       cy="451.47"
       r="32"
       stroke="#6c63ff"
       stroke-miterlimit="10"
       opacity="0.1"
       id="circle888" />
    <path
       d="m 522.68,518.18 h -13 v 13 h -4 v -13 h -13 v -4 h 13 v -13 h 4 v 13 h 13 z"
       transform="translate(-27.15,-64.71)"
       fill="#ffffff"
       id="path890" />
  </g>
  <circle
     cx="338.20004"
     cy="341.70001"
     r="32"
     stroke="#6c63ff"
     stroke-miterlimit="10"
     opacity="0.1"
     id="circle894" />
  <path
     d="m 338.20001,322.19 a 18.24,18.24 0 0 0 -18,18.48 v 14.37 a 6.08,6.08 0 0 0 6,6.16 h 6 v -16.51 h -8 v -4 a 14,14 0 1 1 28,0 v 4 h -8 v 16.5 h 6 a 6.07,6.07 0 0 0 6,-6.16 v -14.36 a 18.24,18.24 0 0 0 -18,-18.48 z"
     fill="#ffffff"
     id="path896" />
  <g
     opacity="0.4"
     id="g902"
     transform="translate(-312.32999,-13.77)">
    <circle
       cx="565.53003"
       cy="451.47"
       r="32"
       stroke="#6c63ff"
       stroke-miterlimit="10"
       opacity="0.1"
       id="circle898" />
    <path
       d="m 604.68,512.75 v -8 a 2.31,2.31 0 0 0 -2.34,-2.28 H 574 a 2.31,2.31 0 0 0 -2.33,2.28 v 22.81 a 2.32,2.32 0 0 0 2.33,2.28 h 28.33 a 2.32,2.32 0 0 0 2.34,-2.28 v -8 l 9,9.12 v -25.05 z"
       transform="translate(-27.15,-64.71)"
       fill="#ffffff"
       id="path900" />
  </g>
  <circle
     cx="338.20004"
     cy="437.70001"
     r="32"
     stroke="#6c63ff"
     stroke-miterlimit="10"
     opacity="0.1"
     id="circle904" />
  <path
     d="m 336.62001,445.94 a 11.44,11.44 0 0 1 -11.29,0 c -4.42,1.35 -7.13,5.82 -8.13,9.75 h 27.55 c -1,-3.93 -3.7,-8.4 -8.13,-9.75 z m -5.64,-21 a 9.93,9.93 0 1 0 9.92,9.92 9.92,9.92 0 0 0 -9.92,-9.92 z m 0,17.48 a 7.66,7.66 0 0 1 -6.94,-4.74 h 13.87 a 7.66,7.66 0 0 1 -6.93,4.75 z"
     fill="#ffffff"
     id="path906" />
  <path
     d="m 344.44001,449.69 h 14.76 a 12.28,12.28 0 0 0 -8.13,-9 11.47,11.47 0 0 1 -5.65,1.49 11.25,11.25 0 0 1 -3.9,-0.66 13.47,13.47 0 0 1 -2.62,3.28 12.77,12.77 0 0 1 5.54,4.89 z m -1.5,-17.25 h 9.42 a 7.66,7.66 0 0 1 -6.94,4.72 7.26,7.26 0 0 1 -2.38,-0.42 12,12 0 0 1 -0.61,2.35 9.93,9.93 0 1 0 3,-19.39 9.94,9.94 0 0 0 -8.37,4.6 12.25,12.25 0 0 1 5.88,8.14 z"
     fill="#ffffff"
     id="path908" />
  <circle
     cx="253.20004"
     cy="565.69995"
     r="32"
     fill="#ff6f61"
     id="circle910"
     style="fill:#ffc161;fill-opacity:1" />
  <path
     d="m 236.77001,573.6 a 23.61,23.61 0 0 1 5.91,-4.08 1.87,1.87 0 0 0 1.11,-1.74 l 0.17,-6.22 a 30.06,30.06 0 0 1 18.66,0.5 l -0.17,6.22 a 2.07,2.07 0 0 0 1,1.8 21.9,21.9 0 0 1 5.82,4.4 2,2 0 0 0 2.83,0.08 l 5.08,-4.82 a 2,2 0 0 0 0.08,-2.82 34,34 0 0 0 -48.07,-1.3 2,2 0 0 0 -0.07,2.83 l 4.81,5.08 a 2,2 0 0 0 2.83,0.07 z"
     fill="#ffffff"
     id="path912" />
  <circle
     cx="342.20004"
     cy="229.70001"
     r="25"
     stroke="#6c63ff"
     stroke-miterlimit="10"
     opacity="0.1"
     id="circle914" />
  <path
     d="m 347.85001,235.31 a 11.46,11.46 0 0 1 -11.3,0 c -4.42,1.35 -7.13,5.82 -8.13,9.76 h 27.56 c -1,-3.94 -3.71,-8.41 -8.13,-9.76 z m -5.65,-21 a 9.93,9.93 0 1 0 9.92,9.93 9.94,9.94 0 0 0 -9.92,-9.93 z m 0,17.49 a 7.68,7.68 0 0 1 -6.94,-4.74 h 13.88 a 7.7,7.7 0 0 1 -6.94,4.75 z"
     fill="#ffffff"
     id="path916" />
</svg>
