<?xml version="1.0" encoding="UTF-8" standalone="no"?>
<svg
   xmlns:dc="http://purl.org/dc/elements/1.1/"
   xmlns:cc="http://creativecommons.org/ns#"
   xmlns:rdf="http://www.w3.org/1999/02/22-rdf-syntax-ns#"
   xmlns:svg="http://www.w3.org/2000/svg"
   xmlns="http://www.w3.org/2000/svg"
   xmlns:sodipodi="http://sodipodi.sourceforge.net/DTD/sodipodi-0.dtd"
   xmlns:inkscape="http://www.inkscape.org/namespaces/inkscape"
   inkscape:version="1.0 (4035a4f, 2020-05-01)"
   sodipodi:docname="undraw_Choose_bwbs.svg"
   version="1.1"
   viewBox="0 0 567 666.54559"
   height="666.54559"
   width="567"
   data-name="Layer 1"
   id="f9bc2a0f-651a-4336-bfd5-9ca8f57cbc4d">
  <metadata
     id="metadata962">
    <rdf:RDF>
      <cc:Work
         rdf:about="">
        <dc:format>image/svg+xml</dc:format>
        <dc:type
           rdf:resource="http://purl.org/dc/dcmitype/StillImage" />
      </cc:Work>
    </rdf:RDF>
  </metadata>
  <defs
     id="defs960" />
  <sodipodi:namedview
     inkscape:current-layer="f9bc2a0f-651a-4336-bfd5-9ca8f57cbc4d"
     inkscape:window-maximized="0"
     inkscape:window-y="23"
     inkscape:window-x="0"
     inkscape:cy="333.2728"
     inkscape:cx="283.5"
     inkscape:zoom="1.3202398"
     showgrid="false"
     id="namedview958"
     inkscape:window-height="1046"
     inkscape:window-width="1759"
     inkscape:pageshadow="2"
     inkscape:pageopacity="0"
     guidetolerance="10"
     gridtolerance="10"
     objecttolerance="10"
     borderopacity="1"
     bordercolor="#666666"
     pagecolor="#ffffff" />
  <title
     id="title833">Choose</title>
  <polygon
     id="polygon835"
     fill="#f5f5f5"
     points="528.756 115.473 474.496 99.068 471.159 173.268 528.262 190.48 528.756 115.473" />
  <polygon
     style="fill:#00d2ff;fill-opacity:1"
     id="polygon837"
     fill="#f5f5f5"
     points="146.808 0 146.808 75.501 471.159 173.268 474.496 99.068 146.808 0" />
  <polygon
     style="fill:#00d2ff;fill-opacity:1;opacity:0.46"
     id="polygon839"
     opacity="0.1"
     points="528.756 115.473 474.496 99.068 471.159 173.268 528.262 190.48 528.756 115.473" />
  <polygon
     id="polygon841"
     fill="#3ad29f"
     points="528.756 257.593 474.496 241.188 471.159 315.388 528.262 332.601 528.756 257.593" />
  <polygon
     id="polygon843"
     fill="#3ad29f"
     points="146.808 142.12 146.808 217.621 471.159 315.388 474.496 241.188 146.808 142.12" />
  <polygon
     id="polygon845"
     opacity="0.1"
     points="528.756 257.593 474.496 241.188 471.159 315.388 528.262 332.601 528.756 257.593" />
  <polyline
     id="polyline847"
     stroke-width="7"
     stroke-miterlimit="10"
     stroke-linecap="round"
     stroke="#fff"
     fill="none"
     points="488.291 283.747 497.174 297.07 514.939 274.864" />
  <polygon
     id="polygon855"
     fill="#f5f5f5"
     points="528.756 390.83 474.496 374.426 471.159 448.626 528.262 465.838 528.756 390.83" />
  <polygon
     style="fill:#fd00ff;fill-opacity:1"
     id="polygon857"
     fill="#f5f5f5"
     points="146.808 275.358 146.808 350.859 471.159 448.626 474.496 374.426 146.808 275.358" />
  <polygon
     style="opacity:0.46;fill:#f604ff;fill-opacity:1"
     id="polygon859"
     opacity="0.1"
     points="528.756 390.83 474.496 374.426 471.159 448.626 528.262 465.838 528.756 390.83" />
  <ellipse
     id="ellipse867"
     opacity="0.3"
     ry="22.20627"
     rx="11.10313"
     cy="243.77546"
     cx="371.09138" />
  <ellipse
     id="ellipse869"
     opacity="0.1"
     fill="#6c63ff"
     ry="186.53264"
     rx="93.26632"
     cy="243.77546"
     cx="371.09138" />
  <ellipse
     id="ellipse871"
     opacity="0.1"
     fill="#fff"
     ry="102.14883"
     rx="51.07441"
     cy="243.77546"
     cx="371.09138" />
  <g
     id="g877"
     opacity="0.5">
    <rect
       id="rect873"
       fill="#47e6b1"
       height="8.38903"
       width="1.48042"
       y="110.29112"
       x="3.45431" />
    <rect
       id="rect875"
       fill="#47e6b1"
       transform="translate(235.40736 -206.20888) rotate(90)"
       height="8.38903"
       width="1.48042"
       y="227.01833"
       x="319.95431" />
  </g>
  <g
     id="g883"
     opacity="0.5">
    <rect
       id="rect879"
       fill="#47e6b1"
       height="8.38903"
       width="1.48042"
       y="519.29112"
       x="528.45431" />
    <rect
       id="rect881"
       fill="#47e6b1"
       transform="translate(1169.40736 -322.20888) rotate(90)"
       height="8.38903"
       width="1.48042"
       y="636.01833"
       x="844.95431" />
  </g>
  <g
     id="g889"
     opacity="0.5">
    <rect
       id="rect885"
       fill="#47e6b1"
       height="8.38903"
       width="1.48042"
       y="341.23629"
       x="491.99217" />
    <rect
       id="rect887"
       fill="#47e6b1"
       transform="translate(954.89039 -463.80157) rotate(90)"
       height="8.38903"
       width="1.48042"
       y="457.9635"
       x="808.49217" />
  </g>
  <g
     id="g895"
     opacity="0.5">
    <rect
       id="rect891"
       fill="#47e6b1"
       height="8.38903"
       width="1.48042"
       y="511.97781"
       x="428.82768" />
    <rect
       id="rect893"
       fill="#47e6b1"
       transform="translate(1062.46741 -229.89556) rotate(90)"
       height="8.38903"
       width="1.48042"
       y="628.70501"
       x="745.32768" />
  </g>
  <g
     id="g901"
     opacity="0.5">
    <rect
       id="rect897"
       fill="#47e6b1"
       height="8.38903"
       width="1.48042"
       y="619.06136"
       x="384.41514" />
    <rect
       id="rect899"
       fill="#47e6b1"
       transform="translate(1125.13843 -78.39948) rotate(90)"
       height="8.38903"
       width="1.48042"
       y="735.78856"
       x="700.91514" />
  </g>
  <g
     id="g907"
     opacity="0.5">
    <rect
       id="rect903"
       fill="#47e6b1"
       height="8.38903"
       width="1.48042"
       y="240.07441"
       x="66.6188" />
    <rect
       id="rect905"
       fill="#47e6b1"
       transform="translate(428.35514 -139.59008) rotate(90)"
       height="8.38903"
       width="1.48042"
       y="356.80162"
       x="383.1188" />
  </g>
  <path
     id="path909"
     opacity="0.5"
     fill="#4d8af0"
     transform="translate(-316.5 -116.7272)"
     d="M406.16017,226.18211a1.8133,1.8133,0,0,1-1.01037-2.19152.87236.87236,0,0,0,.03943-.20111h0a.90926.90926,0,0,0-1.63362-.60262h0a.87141.87141,0,0,0-.10062.17854,1.81331,1.81331,0,0,1-2.19153,1.01038.8712.8712,0,0,0-.20111-.03943h0a.90925.90925,0,0,0-.60262,1.63361h0a.87157.87157,0,0,0,.17854.10061,1.81331,1.81331,0,0,1,1.01037,2.19153.87226.87226,0,0,0-.03943.20111h0a.90926.90926,0,0,0,1.63362.60263h0a.87167.87167,0,0,0,.10062-.17854,1.81331,1.81331,0,0,1,2.19153-1.01038.87173.87173,0,0,0,.20111.03943h0a.90926.90926,0,0,0,.60263-1.63362h0A.87161.87161,0,0,0,406.16017,226.18211Z" />
  <path
     id="path913"
     opacity="0.5"
     fill="#4d8af0"
     transform="translate(-316.5 -116.7272)"
     d="M329.76972,415.99677a1.81331,1.81331,0,0,1-1.01038-2.19153.8712.8712,0,0,0,.03943-.20111h0a.90925.90925,0,0,0-1.63361-.60262h0a.87115.87115,0,0,0-.10062.17854,1.81332,1.81332,0,0,1-2.19153,1.01038.87175.87175,0,0,0-.20111-.03944h0a.90926.90926,0,0,0-.60263,1.63362h0a.87115.87115,0,0,0,.17854.10062,1.81331,1.81331,0,0,1,1.01037,2.19153.87173.87173,0,0,0-.03943.20111h0a.90926.90926,0,0,0,1.63362.60263h0a.87115.87115,0,0,0,.10062-.17854,1.81331,1.81331,0,0,1,2.19153-1.01037.87163.87163,0,0,0,.20111.03943h0a.90926.90926,0,0,0,.60262-1.63362h0A.87115.87115,0,0,0,329.76972,415.99677Z" />
  <path
     id="path915"
     opacity="0.5"
     fill="#4d8af0"
     transform="translate(-316.5 -116.7272)"
     d="M343.09348,602.52941a1.81332,1.81332,0,0,1-1.01038-2.19153.8712.8712,0,0,0,.03943-.20111h0a.90926.90926,0,0,0-1.63361-.60263h0a.87134.87134,0,0,0-.10062.17853,1.81332,1.81332,0,0,1-2.19153,1.01038.87173.87173,0,0,0-.20111-.03943h0a.90926.90926,0,0,0-.60263,1.63362h0a.87115.87115,0,0,0,.17854.10062,1.81331,1.81331,0,0,1,1.01037,2.19153.87163.87163,0,0,0-.03943.20111h0a.90926.90926,0,0,0,1.63362.60262h0a.87141.87141,0,0,0,.10062-.17854,1.81331,1.81331,0,0,1,2.19153-1.01038.8711.8711,0,0,0,.20111.03943h0A.90925.90925,0,0,0,343.272,602.63h0A.87115.87115,0,0,0,343.09348,602.52941Z" />
  <circle
     id="circle917"
     opacity="0.5"
     fill="#f55f44"
     r="2.96084"
     cy="134.47128"
     cx="248.71018" />
  <circle
     id="circle919"
     opacity="0.5"
     fill="#4d8af0"
     r="2.96084"
     cy="520.86031"
     cx="328.65274" />
  <circle
     id="circle921"
     opacity="0.5"
     fill="#4d8af0"
     r="2.96084"
     cy="214.41384"
     cx="510.74413" />
  <circle
     id="circle923"
     opacity="0.5"
     fill="#47e6b1"
     r="2.96084"
     cy="347.65144"
     cx="564.03916" />
  <rect
     style="fill:#d5d4e4;fill-opacity:1"
     id="rect927"
     fill="#6c63ff"
     transform="translate(758.82811 443.07373) rotate(-177.77929)"
     height="28.59727"
     width="22.24232"
     y="255.18094"
     x="531.96787" />
  <path
     id="path929"
     fill="#ffb9b9"
     transform="translate(-316.5 -116.7272)"
     d="M632.78991,354.83947s30.779-14.70577,30.28646-2.00541S632.05116,373.89,632.05116,373.89Z" />
  <path
     style="fill:#4c4c4c;fill-opacity:1"
     id="path931"
     fill="#6c63ff"
     transform="translate(-316.5 -116.7272)"
     d="M615.90334,462.3s14.52107,35.54159,19.88626,61.18854,13.53608,60.94229,3.02582,85.97362-40.39191,98.59935-40.69972,106.53707,2.55946,15.99856-3.79071,15.75231-40.90677-11.12587-42.30963-15.95007,11.79-17.03205,11.79-17.03205l32.57732-102.08224L562.3932,530.18191l-24.51648,99.215-4.80184,123.82843s-23.56691-7.27361-26.98824-1.04656c0,0-10.55875-14.71883-11.9-21.13057s4.98653-128.59106,4.98653-128.59106-21.63236-139.16288-4.16937-138.4857S580.86732,422.783,615.90334,462.3Z" />
  <path
     style="fill:#d5d5d5;fill-opacity:1"
     id="path933"
     fill="#575a89"
     transform="translate(-316.5 -116.7272)"
     d="M594.57123,725.40133s16.10862,35.60315,17.63461,37.25225,12.02317,17.95548,4.08545,17.64767-26.68044-8.98427-40.47584-22.23868-31.98406-36.21877-30.335-37.74475,12.9466-5.85768,12.9466-5.85768Z" />
  <path
     style="fill:#d5d5d5;fill-opacity:1"
     id="path935"
     fill="#575a89"
     transform="translate(-316.5 -116.7272)"
     d="M530.20761,745.16446s.97192,15.937,3.90076,22.41031,2.55947,15.99856-5.37825,15.69075-28.45267-4.28321-28.45267-4.28321-1.21817-9.58682.43093-11.1128,8.67647-18.74272,5.68607-23.62848S530.20761,745.16446,530.20761,745.16446Z" />
  <path
     style="fill:#ffaaaa;fill-opacity:1"
     id="path937"
     fill="#ffb9b9"
     transform="translate(-316.5 -116.7272)"
     d="M518.46439,227.98143s-16.922,26.37262-23.51842,32.47655,11.9616,19.543,11.9616,19.543l33.2153,4.46789s-.41786-30.2249,1.29281-33.33843S518.46439,227.98143,518.46439,227.98143Z" />
  <path
     style="fill:#d5d4e4;fill-opacity:1"
     id="path939"
     fill="#6c63ff"
     transform="translate(-316.5 -116.7272)"
     d="M547.33492,262.48953s-6.84267,12.4541-13.19285,12.20785-39.1961-14.2394-40.599-19.06359-10.87963,34.55659-10.87963,34.55659L563.035,431.63106l19.60459-13.54915-9.49913-83.04479-7.80153-44.8206Z" />
  <path
     style="fill:#7b7ea4;fill-opacity:1"
     id="path941"
     fill="#575a89"
     transform="translate(-316.5 -116.7272)"
     d="M490.57861,389.07305c3.206,6.70666,5.20835,13.70048,4.9307,20.86031-.01231.31753-.02462.635-.05282.95188-.76057,14.69328-6.17341,31.68645-8.11534,44.04442-1.40908,8.86485-1.00808,15.33552,4.1797,16.85636,12.57723,3.66758-1.83379,6.28861,46.826,22.48493s57.15159,2.21623,57.27471-.95885-6.89116-27.29606-5.24206-28.822,23.07442,19.97395,29.54772,17.04511.73874-19.05052.73874-19.05052-14.58264-33.954-14.27483-41.89177-22.08942-45.37466-22.08942-45.37466L569.068,276.05175s-5.85768-12.9466-13.73384-14.842-14.411,2.621-14.411,2.621L554.103,292.96067l13.90546,51.417-2.32629,18.989s-16.17018-34.01561-26.7905-47.14689-33.26379-44.21806-33.26379-44.21806-5.28646-17.83738-1.2957-23.1679c3.99136-5.34633-16.64671-6.14663-25.4463,15.77117C474.222,276.2214,466.65,293.54424,461.90662,309.673c-4.22682,14.28851-6.22343,27.646-2.03588,35.28111C466.271,356.618,482.3708,371.94919,490.57861,389.07305Z" />
  <path
     id="path943"
     opacity="0.1"
     transform="translate(-316.5 -116.7272)"
     d="M459.87074,344.95412c6.40029,11.66388,22.50006,26.99507,30.70787,44.11893,2.14378-7.72348,4.75909-15.71476,4.75909-15.71476s10.03082-53.66868-19.64-67.53871a19.85762,19.85762,0,0,0-13.79106,3.85343C457.6798,323.96152,455.68319,337.319,459.87074,344.95412Z" />
  <path
     style="fill:#7b7ea4;fill-opacity:1"
     id="path945"
     fill="#575a89"
     transform="translate(-316.5 -116.7272)"
     d="M577.6568,341.572l25.15446,7.33516,34.926,1.35437,3.593,30.348-57.39783,4.13394S569.596,344.43926,577.6568,341.572Z" />
  <path
     id="path947"
     fill="#ffb9b9"
     transform="translate(-316.5 -116.7272)"
     d="M536.639,443.61156s33.65163,5.58313,25.971,15.70981-37.49194-.51979-37.49194-.51979Z" />
  <path
     id="path949"
     opacity="0.1"
     transform="translate(-316.5 -116.7272)"
     d="M495.45649,410.88524c-.76057,14.69328-6.17341,31.68645-8.11534,44.04442,10.72016,10.14608,20.91438,19.09523,24.75621,19.24421,7.93772.30781,20.69963-.78724,25.4007.985s7.4583-28.32954,7.4583-28.32954-2.80572-9.64839-15.32139-14.90352C521.18717,428.3706,504.994,418.72778,495.45649,410.88524Z" />
  <path
     style="fill:#7b7ea4;fill-opacity:1"
     id="path951"
     fill="#575a89"
     transform="translate(-316.5 -116.7272)"
     d="M476.06706,296.29431s-26.86513-4.22164-25.41378,40.35271-2.83185,73.027,7.97315,81.39568,45.90258,46.29809,53.8403,46.6059,20.69964-.78723,25.40071.985,7.45829-28.32955,7.45829-28.32955-2.80572-9.64838-15.32138-14.90351-42.00182-23.88779-41.75558-30.238,7.4583-28.32954,7.4583-28.32954S505.7379,310.16434,476.06706,296.29431Z" />
  <circle
     style="fill:#ffaaaa;fill-opacity:1"
     id="circle953"
     fill="#ffb9b9"
     r="34.95222"
     cy="115.35274"
     cx="225.65442" />
  <path
     id="path955"
     fill="#2f2e41"
     transform="translate(-316.5 -116.7272)"
     d="M565.68863,181.98324a6.749,6.749,0,0,0,2.93882,1.47479,2.09716,2.09716,0,0,0,2.43029-1.68345c.79968,1.65841,1.70192,3.42592,3.33461,4.27688s4.15732.13741,4.39266-1.68863a7.706,7.706,0,0,0,1.77364,3.74391c1.013.96585,2.85,1.20962,3.73439.12483-.715,3.90745-.27369,7.92586-.49823,11.89183s-1.2821,8.1705-4.27847,10.7784c-4.36987,3.80334-10.94108,2.86467-16.68929,2.1441a5.06575,5.06575,0,0,0-2.61539.14308c-2.15231.917-2.05467,3.9131-2.08369,6.25242a17.37277,17.37277,0,0,1-15.21221,16.4975,8.70857,8.70857,0,0,1-6.47244-1.57965c-1.63206-1.38335-2.46572-3.638-4.33585-4.67723-3.04207-1.6904-6.73153.77486-8.95568,3.45158s-4.4162,5.96933-7.86172,6.45931c-4.55691.648-8.02766-3.996-9.73047-8.27217A48.223,48.223,0,0,1,506.518,193.851C516.03291,173.10989,548.53618,169.82929,565.68863,181.98324Z" />
</svg>
