<?xml version="1.0" encoding="UTF-8" standalone="no"?>
<svg
   xmlns:dc="http://purl.org/dc/elements/1.1/"
   xmlns:cc="http://creativecommons.org/ns#"
   xmlns:rdf="http://www.w3.org/1999/02/22-rdf-syntax-ns#"
   xmlns:svg="http://www.w3.org/2000/svg"
   xmlns="http://www.w3.org/2000/svg"
   xmlns:sodipodi="http://sodipodi.sourceforge.net/DTD/sodipodi-0.dtd"
   xmlns:inkscape="http://www.inkscape.org/namespaces/inkscape"
   inkscape:version="1.0 (4035a4f, 2020-05-01)"
   sodipodi:docname="undraw_Mail_sent_re_0ofv.svg"
   version="1.1"
   viewBox="0 0 503.48001 720.79246"
   height="720.79248"
   width="503.48001"
   data-name="Layer 1"
   id="b76bd6b3-ad77-41ff-b778-1d1d054fe577">
  <metadata
     id="metadata2662">
    <rdf:RDF>
      <cc:Work
         rdf:about="">
        <dc:format>image/svg+xml</dc:format>
        <dc:type
           rdf:resource="http://purl.org/dc/dcmitype/StillImage" />
        <dc:title></dc:title>
      </cc:Work>
    </rdf:RDF>
  </metadata>
  <defs
     id="defs2660" />
  <sodipodi:namedview
     inkscape:current-layer="b76bd6b3-ad77-41ff-b778-1d1d054fe577"
     inkscape:window-maximized="0"
     inkscape:window-y="0"
     inkscape:window-x="0"
     inkscape:cy="414.81055"
     inkscape:cx="250.95139"
     inkscape:zoom="1.2680487"
     showgrid="false"
     id="namedview2658"
     inkscape:window-height="1080"
     inkscape:window-width="1920"
     inkscape:pageshadow="2"
     inkscape:pageopacity="0"
     guidetolerance="10"
     gridtolerance="10"
     objecttolerance="10"
     borderopacity="1"
     bordercolor="#666666"
     pagecolor="#ffffff" />
  <g
     transform="translate(4.7452725)"
     id="g3233">
    <path
       d="m 461.58286,464.25795 a 0.76392038,0.79502202 0 0 1 -0.43746,-0.14293 L 249.19398,310.49633 a 3.8438045,4.000298 0 0 0 -4.39027,0.008 L 34.37899,464.11365 a 0.76653695,0.79774511 0 0 1 -0.880334,-1.30622 L 243.92356,309.19809 a 5.3817002,5.6008065 0 0 1 6.14643,-0.0105 L 462.0214,462.80587 a 0.76653377,0.79774181 0 0 1 -0.43857,1.45225 z"
       fill="#3f3d56"
       id="path2641"
       style="stroke-width:0.781834" />
    <polygon
       points="549.276,216.319 298.776,364.819 162.776,333.819 23.264,202.502 285.276,8.319 "
       fill="#e6e6e6"
       id="polygon2643"
       transform="matrix(0.76638815,0,0,0.79759026,28.574106,308.18961)" />
    <path
       d="M 162.12148,672.32234 H 62.91996 a 4.6346327,4.8233234 0 1 1 0,-9.64664 h 99.20152 a 4.6346327,4.8233234 0 1 1 0,9.64664 z"
       fill="#6c63ff"
       id="path2645"
       style="fill:#ffe363;fill-opacity:1;stroke-width:0.781834" />
    <path
       d="M 98.511263,651.58499 H 62.91996 a 4.6346327,4.8233234 0 1 1 0,-9.64664 h 35.591303 a 4.6346327,4.8233234 0 1 1 0,9.64664 z"
       fill="#6c63ff"
       id="path2647"
       style="fill:#ffe363;fill-opacity:1;stroke-width:0.781834" />
    <path
       d="m 250.02975,555.96859 a 5.7966994,6.0327016 0 0 1 -2.19887,-0.44824 L 123.98958,502.04284 V 334.64938 a 5.3709785,5.5896482 0 0 1 5.36473,-5.58313 h 237.58032 a 5.3709861,5.5896561 0 0 1 5.36472,5.58313 v 167.51031 l -0.23276,0.1036 -119.77135,53.23095 a 5.8369961,6.0746389 0 0 1 -2.26549,0.47435 z"
       fill="#ffffff"
       id="path2649"
       style="stroke-width:0.781834" />
    <path
       d="m 250.02975,556.367 a 6.1861089,6.4379652 0 0 1 -2.34481,-0.47747 L 123.60639,502.30922 V 334.64937 a 5.7544331,5.9887145 0 0 1 5.74792,-5.98193 h 237.58032 a 5.7544331,5.9887145 0 0 1 5.74791,5.98193 v 167.77357 l -120.23687,53.43775 a 6.2150784,6.4681141 0 0 1 -2.41592,0.50631 z m -124.89061,-55.1233 123.13029,53.17099 a 4.688916,4.8798168 0 0 0 3.5775,-0.0222 L 371.14981,501.36991 V 334.64937 a 4.2201394,4.3919547 0 0 0 -4.21514,-4.38675 H 129.35434 a 4.2201394,4.3919547 0 0 0 -4.21513,4.38675 z"
       fill="#3f3d56"
       id="path2651"
       style="stroke-width:0.781834" />
    <path
       d="m 460.05064,462.66277 h -0.15343 L 371.916,501.76066 251.53955,555.25504 a 3.8826297,4.0407039 0 0 1 -2.97387,0.0159 l -124.19305,-53.62196 -90.142672,-38.92241 -0.137704,-0.0638 h -0.153431 a 5.3706796,5.5893371 0 0 0 -5.364717,5.58313 v 242.46744 a 5.3706872,5.5893451 0 0 0 5.364717,5.58313 H 460.05064 a 5.3706872,5.5893451 0 0 0 5.36472,-5.58313 V 468.2459 a 5.3706796,5.5893371 0 0 0 -5.36472,-5.58313 z m 3.83194,248.05057 a 3.8334735,3.9895465 0 0 1 -3.83194,3.98795 H 33.938823 a 3.8334735,3.9895465 0 0 1 -3.831941,-3.98795 V 468.2459 a 3.840417,3.9967727 0 0 1 3.686373,-3.98795 l 90.579375,39.11381 123.60329,53.37474 a 5.4573044,5.6794887 0 0 0 4.1691,-0.0239 L 371.916,503.49144 460.20407,464.25798 a 3.8443639,4.0008803 0 0 1 3.67851,3.98795 z"
       fill="#3f3d56"
       id="path2653"
       style="stroke-width:0.781834" />
    <path
       d="m 248.79191,508.50201 a 21.074617,21.932632 0 0 1 -12.68058,-4.38364 l -0.22677,-0.1772 -47.75441,-38.05105 a 21.216208,22.079987 0 1 1 25.8074,-35.05346 l 30.9317,24.68362 73.09651,-99.20964 a 21.215425,22.079173 0 0 1 29.746,-4.08647 l -0.45446,0.64219 0.46627,-0.63285 a 21.240041,22.104791 0 0 1 3.92661,30.95725 l -85.97904,116.69431 a 21.224714,22.08884 0 0 1 -16.87923,8.61694 z"
       fill="#6c63ff"
       id="path2655"
       style="fill:#ffe363;fill-opacity:1;stroke-width:0.781834" />
  </g>
</svg>
